<svg baseProfile="full" height="400" version="1.1" width="800" xmlns="http://www.w3.org/2000/svg" xmlns:ev="http://www.w3.org/2001/xml-events" xmlns:xlink="http://www.w3.org/1999/xlink"><defs /><rect fill="#ffffff" fill-opacity="1" height="400" rx="20" ry="20" width="800" x="0" y="0" /><text fill="#000000" fill-opacity="1" style="font-size: 20px; font-family: Arial" text-anchor="middle" x="400.0" y="30.0">Zhuang's Repo Traffic Stats</text><line stroke="#e2e8f0" stroke-opacity="1" x1="60" x2="750" y1="320" y2="320" /><line stroke="#e2e8f0" stroke-opacity="1" x1="60" x2="60" y1="60" y2="320" /><line opacity="0.5" stroke="#e2e8f0" stroke-dasharray="5,5" stroke-opacity="1" stroke-width="1" x1="60" x2="750" y1="320.0" y2="320.0" /><text fill="#000000" fill-opacity="1" style="font-size: 12px; font-family: Arial" text-anchor="end" x="50" y="325.0">0</text><line opacity="0.5" stroke="#e2e8f0" stroke-dasharray="5,5" stroke-opacity="1" stroke-width="1" x1="60" x2="750" y1="268.0" y2="268.0" /><text fill="#000000" fill-opacity="1" style="font-size: 12px; font-family: Arial" text-anchor="end" x="50" y="273.0">10</text><line opacity="0.5" stroke="#e2e8f0" stroke-dasharray="5,5" stroke-opacity="1" stroke-width="1" x1="60" x2="750" y1="216.0" y2="216.0" /><text fill="#000000" fill-opacity="1" style="font-size: 12px; font-family: Arial" text-anchor="end" x="50" y="221.0">20</text><line opacity="0.5" stroke="#e2e8f0" stroke-dasharray="5,5" stroke-opacity="1" stroke-width="1" x1="60" x2="750" y1="164.0" y2="164.0" /><text fill="#000000" fill-opacity="1" style="font-size: 12px; font-family: Arial" text-anchor="end" x="50" y="169.0">30</text><line opacity="0.5" stroke="#e2e8f0" stroke-dasharray="5,5" stroke-opacity="1" stroke-width="1" x1="60" x2="750" y1="112.0" y2="112.0" /><text fill="#000000" fill-opacity="1" style="font-size: 12px; font-family: Arial" text-anchor="end" x="50" y="117.0">40</text><line opacity="0.5" stroke="#e2e8f0" stroke-dasharray="5,5" stroke-opacity="1" stroke-width="1" x1="60" x2="750" y1="60.0" y2="60.0" /><text fill="#000000" fill-opacity="1" style="font-size: 12px; font-family: Arial" text-anchor="end" x="50" y="65.0">50</text><line opacity="0.5" stroke="#e2e8f0" stroke-dasharray="5,5" stroke-opacity="1" stroke-width="1" x1="60.0" x2="60.0" y1="60" y2="320" /><line opacity="0.5" stroke="#e2e8f0" stroke-dasharray="5,5" stroke-opacity="1" stroke-width="1" x1="109.28571428571428" x2="109.28571428571428" y1="60" y2="320" /><line opacity="0.5" stroke="#e2e8f0" stroke-dasharray="5,5" stroke-opacity="1" stroke-width="1" x1="158.57142857142856" x2="158.57142857142856" y1="60" y2="320" /><line opacity="0.5" stroke="#e2e8f0" stroke-dasharray="5,5" stroke-opacity="1" stroke-width="1" x1="207.85714285714286" x2="207.85714285714286" y1="60" y2="320" /><line opacity="0.5" stroke="#e2e8f0" stroke-dasharray="5,5" stroke-opacity="1" stroke-width="1" x1="257.1428571428571" x2="257.1428571428571" y1="60" y2="320" /><line opacity="0.5" stroke="#e2e8f0" stroke-dasharray="5,5" stroke-opacity="1" stroke-width="1" x1="306.42857142857144" x2="306.42857142857144" y1="60" y2="320" /><line opacity="0.5" stroke="#e2e8f0" stroke-dasharray="5,5" stroke-opacity="1" stroke-width="1" x1="355.7142857142857" x2="355.7142857142857" y1="60" y2="320" /><line opacity="0.5" stroke="#e2e8f0" stroke-dasharray="5,5" stroke-opacity="1" stroke-width="1" x1="405.0" x2="405.0" y1="60" y2="320" /><line opacity="0.5" stroke="#e2e8f0" stroke-dasharray="5,5" stroke-opacity="1" stroke-width="1" x1="454.2857142857143" x2="454.2857142857143" y1="60" y2="320" /><line opacity="0.5" stroke="#e2e8f0" stroke-dasharray="5,5" stroke-opacity="1" stroke-width="1" x1="503.57142857142856" x2="503.57142857142856" y1="60" y2="320" /><line opacity="0.5" stroke="#e2e8f0" stroke-dasharray="5,5" stroke-opacity="1" stroke-width="1" x1="552.8571428571429" x2="552.8571428571429" y1="60" y2="320" /><line opacity="0.5" stroke="#e2e8f0" stroke-dasharray="5,5" stroke-opacity="1" stroke-width="1" x1="602.1428571428571" x2="602.1428571428571" y1="60" y2="320" /><line opacity="0.5" stroke="#e2e8f0" stroke-dasharray="5,5" stroke-opacity="1" stroke-width="1" x1="651.4285714285714" x2="651.4285714285714" y1="60" y2="320" /><line opacity="0.5" stroke="#e2e8f0" stroke-dasharray="5,5" stroke-opacity="1" stroke-width="1" x1="700.7142857142857" x2="700.7142857142857" y1="60" y2="320" /><line opacity="0.5" stroke="#e2e8f0" stroke-dasharray="5,5" stroke-opacity="1" stroke-width="1" x1="750.0" x2="750.0" y1="60" y2="320" /><circle cx="60.0" cy="320.0" fill="#38a1dd" fill-opacity="1" r="4" /><circle cx="109.28571428571428" cy="96.4" fill="#38a1dd" fill-opacity="1" r="4" /><circle cx="158.57142857142856" cy="143.2" fill="#38a1dd" fill-opacity="1" r="4" /><circle cx="207.85714285714286" cy="143.2" fill="#38a1dd" fill-opacity="1" r="4" /><circle cx="257.1428571428571" cy="236.8" fill="#38a1dd" fill-opacity="1" r="4" /><circle cx="306.42857142857144" cy="195.2" fill="#38a1dd" fill-opacity="1" r="4" /><circle cx="355.7142857142857" cy="184.79999999999998" fill="#38a1dd" fill-opacity="1" r="4" /><circle cx="405.0" cy="236.8" fill="#38a1dd" fill-opacity="1" r="4" /><circle cx="454.2857142857143" cy="320.0" fill="#38a1dd" fill-opacity="1" r="4" /><circle cx="503.57142857142856" cy="304.4" fill="#38a1dd" fill-opacity="1" r="4" /><circle cx="552.8571428571429" cy="299.2" fill="#38a1dd" fill-opacity="1" r="4" /><circle cx="602.1428571428571" cy="309.6" fill="#38a1dd" fill-opacity="1" r="4" /><circle cx="651.4285714285714" cy="294.0" fill="#38a1dd" fill-opacity="1" r="4" /><circle cx="700.7142857142857" cy="320.0" fill="#38a1dd" fill-opacity="1" r="4" /><circle cx="750.0" cy="210.8" fill="#38a1dd" fill-opacity="1" r="4" /><path d="M 60.0,320.0 C 76.42857142857143,320.0 92.85714285714285,96.4 109.28571428571428,96.4 C 125.71428571428571,96.4 142.14285714285714,143.2 158.57142857142856,143.2 C 175.0,143.2 191.42857142857142,143.2 207.85714285714286,143.2 C 224.28571428571428,143.2 240.7142857142857,236.8 257.1428571428571,236.8 C 273.57142857142856,236.8 290.0,195.2 306.42857142857144,195.2 C 322.8571428571429,195.2 339.2857142857143,184.79999999999998 355.7142857142857,184.79999999999998 C 372.14285714285717,184.79999999999998 388.57142857142856,236.8 405.0,236.8 C 421.42857142857144,236.8 437.85714285714283,320.0 454.2857142857143,320.0 C 470.7142857142857,320.0 487.1428571428571,304.4 503.57142857142856,304.4 C 520.0,304.4 536.4285714285714,299.2 552.8571428571429,299.2 C 569.2857142857143,299.2 585.7142857142857,309.6 602.1428571428571,309.6 C 618.5714285714286,309.6 635.0,294.0 651.4285714285714,294.0 C 667.8571428571429,294.0 684.2857142857142,320.0 700.7142857142857,320.0 C 717.1428571428571,320.0 733.5714285714286,210.8 750.0,210.8" fill="none" stroke="#38a1dd" stroke-dasharray="1133.9042957195784" stroke-dashoffset="1133.9042957195784" stroke-linecap="round" stroke-linejoin="round" stroke-opacity="0.4" stroke-width="4"><animate attributeName="stroke-dashoffset" dur="2s" fill="freeze" from="1133.9042957195784" repeatCount="1" to="0" /></path><circle cx="60.0" cy="252.39999999999998" fill="#55bd5c" fill-opacity="1" r="4" /><circle cx="109.28571428571428" cy="169.2" fill="#55bd5c" fill-opacity="1" r="4" /><circle cx="158.57142857142856" cy="221.2" fill="#55bd5c" fill-opacity="1" r="4" /><circle cx="207.85714285714286" cy="153.6" fill="#55bd5c" fill-opacity="1" r="4" /><circle cx="257.1428571428571" cy="200.39999999999998" fill="#55bd5c" fill-opacity="1" r="4" /><circle cx="306.42857142857144" cy="226.39999999999998" fill="#55bd5c" fill-opacity="1" r="4" /><circle cx="355.7142857142857" cy="91.19999999999999" fill="#55bd5c" fill-opacity="1" r="4" /><circle cx="405.0" cy="221.2" fill="#55bd5c" fill-opacity="1" r="4" /><circle cx="454.2857142857143" cy="257.6" fill="#55bd5c" fill-opacity="1" r="4" /><circle cx="503.57142857142856" cy="294.0" fill="#55bd5c" fill-opacity="1" r="4" /><circle cx="552.8571428571429" cy="299.2" fill="#55bd5c" fill-opacity="1" r="4" /><circle cx="602.1428571428571" cy="252.39999999999998" fill="#55bd5c" fill-opacity="1" r="4" /><circle cx="651.4285714285714" cy="299.2" fill="#55bd5c" fill-opacity="1" r="4" /><circle cx="700.7142857142857" cy="252.39999999999998" fill="#55bd5c" fill-opacity="1" r="4" /><circle cx="750.0" cy="320.0" fill="#55bd5c" fill-opacity="1" r="4" /><path d="M 60.0,252.39999999999998 C 76.42857142857143,252.39999999999998 92.85714285714285,169.2 109.28571428571428,169.2 C 125.71428571428571,169.2 142.14285714285714,221.2 158.57142857142856,221.2 C 175.0,221.2 191.42857142857142,153.6 207.85714285714286,153.6 C 224.28571428571428,153.6 240.7142857142857,200.39999999999998 257.1428571428571,200.39999999999998 C 273.57142857142856,200.39999999999998 290.0,226.39999999999998 306.42857142857144,226.39999999999998 C 322.8571428571429,226.39999999999998 339.2857142857143,91.19999999999999 355.7142857142857,91.19999999999999 C 372.14285714285717,91.19999999999999 388.57142857142856,221.2 405.0,221.2 C 421.42857142857144,221.2 437.85714285714283,257.6 454.2857142857143,257.6 C 470.7142857142857,257.6 487.1428571428571,294.0 503.57142857142856,294.0 C 520.0,294.0 536.4285714285714,299.2 552.8571428571429,299.2 C 569.2857142857143,299.2 585.7142857142857,252.39999999999998 602.1428571428571,252.39999999999998 C 618.5714285714286,252.39999999999998 635.0,299.2 651.4285714285714,299.2 C 667.8571428571429,299.2 684.2857142857142,252.39999999999998 700.7142857142857,252.39999999999998 C 717.1428571428571,252.39999999999998 733.5714285714286,320.0 750.0,320.0" fill="none" stroke="#55bd5c" stroke-dasharray="1146.8554003000634" stroke-dashoffset="1146.8554003000634" stroke-linecap="round" stroke-linejoin="round" stroke-opacity="0.4" stroke-width="4"><animate attributeName="stroke-dashoffset" dur="2s" fill="freeze" from="1146.8554003000634" repeatCount="1" to="0" /></path><text fill="#000000" fill-opacity="1" style="font-size: 12px; font-family: Arial" transform="rotate(45, 60.0, 340)" x="60.0" y="340">16</text><text fill="#000000" fill-opacity="1" style="font-size: 12px; font-family: Arial" transform="rotate(45, 109.28571428571428, 340)" x="109.28571428571428" y="340">17</text><text fill="#000000" fill-opacity="1" style="font-size: 12px; font-family: Arial" transform="rotate(45, 158.57142857142856, 340)" x="158.57142857142856" y="340">18</text><text fill="#000000" fill-opacity="1" style="font-size: 12px; font-family: Arial" transform="rotate(45, 207.85714285714286, 340)" x="207.85714285714286" y="340">19</text><text fill="#000000" fill-opacity="1" style="font-size: 12px; font-family: Arial" transform="rotate(45, 257.1428571428571, 340)" x="257.1428571428571" y="340">20</text><text fill="#000000" fill-opacity="1" style="font-size: 12px; font-family: Arial" transform="rotate(45, 306.42857142857144, 340)" x="306.42857142857144" y="340">21</text><text fill="#000000" fill-opacity="1" style="font-size: 12px; font-family: Arial" transform="rotate(45, 355.7142857142857, 340)" x="355.7142857142857" y="340">22</text><text fill="#000000" fill-opacity="1" style="font-size: 12px; font-family: Arial" transform="rotate(45, 405.0, 340)" x="405.0" y="340">23</text><text fill="#000000" fill-opacity="1" style="font-size: 12px; font-family: Arial" transform="rotate(45, 454.2857142857143, 340)" x="454.2857142857143" y="340">24</text><text fill="#000000" fill-opacity="1" style="font-size: 12px; font-family: Arial" transform="rotate(45, 503.57142857142856, 340)" x="503.57142857142856" y="340">25</text><text fill="#000000" fill-opacity="1" style="font-size: 12px; font-family: Arial" transform="rotate(45, 552.8571428571429, 340)" x="552.8571428571429" y="340">26</text><text fill="#000000" fill-opacity="1" style="font-size: 12px; font-family: Arial" transform="rotate(45, 602.1428571428571, 340)" x="602.1428571428571" y="340">27</text><text fill="#000000" fill-opacity="1" style="font-size: 12px; font-family: Arial" transform="rotate(45, 651.4285714285714, 340)" x="651.4285714285714" y="340">28</text><text fill="#000000" fill-opacity="1" style="font-size: 12px; font-family: Arial" transform="rotate(45, 700.7142857142857, 340)" x="700.7142857142857" y="340">29</text><text fill="#000000" fill-opacity="1" style="font-size: 12px; font-family: Arial" transform="rotate(45, 750.0, 340)" x="750.0" y="340">30</text><text fill="#000000" fill-opacity="1" style="font-size: 14px; font-family: Arial" text-anchor="middle" x="400.0" y="373.3333333333333">Days</text><text fill="#000000" fill-opacity="1" style="font-size: 14px; font-family: Arial" text-anchor="middle" transform="rotate(-90, 20.0, 200.0)" x="20.0" y="200.0">Count</text><line stroke="#38a1dd" stroke-opacity="0.4" stroke-width="3" x1="340.0" x2="360.0" y1="388.3333333333333" y2="388.3333333333333" /><text fill="#000000" fill-opacity="1" style="font-size: 12px; font-family: Arial" x="370.0" y="393.3333333333333">Clones</text><line stroke="#55bd5c" stroke-opacity="0.4" stroke-width="3" x1="440.0" x2="460.0" y1="388.3333333333333" y2="388.3333333333333" /><text fill="#000000" fill-opacity="1" style="font-size: 12px; font-family: Arial" x="470.0" y="393.3333333333333">Views</text></svg>