<svg baseProfile="full" height="400" version="1.1" width="800" xmlns="http://www.w3.org/2000/svg" xmlns:ev="http://www.w3.org/2001/xml-events" xmlns:xlink="http://www.w3.org/1999/xlink"><defs /><rect fill="#000000" fill-opacity="0.0" height="400" rx="20" ry="20" width="800" x="0" y="0" /><text fill="#cdd6f4" fill-opacity="1" style="font-size: 20px; font-family: Arial" text-anchor="middle" x="400.0" y="30.0">Zhuang's Repo Traffic Stats</text><line stroke="#414868" stroke-opacity="1" x1="60" x2="750" y1="320" y2="320" /><line stroke="#414868" stroke-opacity="1" x1="60" x2="60" y1="60" y2="320" /><line opacity="0.5" stroke="#414868" stroke-dasharray="5,5" stroke-opacity="1" stroke-width="1" x1="60" x2="750" y1="320.0" y2="320.0" /><text fill="#cdd6f4" fill-opacity="1" style="font-size: 12px; font-family: Arial" text-anchor="end" x="50" y="325.0">0</text><line opacity="0.5" stroke="#414868" stroke-dasharray="5,5" stroke-opacity="1" stroke-width="1" x1="60" x2="750" y1="255.0" y2="255.0" /><text fill="#cdd6f4" fill-opacity="1" style="font-size: 12px; font-family: Arial" text-anchor="end" x="50" y="260.0">10</text><line opacity="0.5" stroke="#414868" stroke-dasharray="5,5" stroke-opacity="1" stroke-width="1" x1="60" x2="750" y1="190.0" y2="190.0" /><text fill="#cdd6f4" fill-opacity="1" style="font-size: 12px; font-family: Arial" text-anchor="end" x="50" y="195.0">20</text><line opacity="0.5" stroke="#414868" stroke-dasharray="5,5" stroke-opacity="1" stroke-width="1" x1="60" x2="750" y1="125.0" y2="125.0" /><text fill="#cdd6f4" fill-opacity="1" style="font-size: 12px; font-family: Arial" text-anchor="end" x="50" y="130.0">30</text><line opacity="0.5" stroke="#414868" stroke-dasharray="5,5" stroke-opacity="1" stroke-width="1" x1="60" x2="750" y1="60.0" y2="60.0" /><text fill="#cdd6f4" fill-opacity="1" style="font-size: 12px; font-family: Arial" text-anchor="end" x="50" y="65.0">40</text><line opacity="0.5" stroke="#414868" stroke-dasharray="5,5" stroke-opacity="1" stroke-width="1" x1="60.0" x2="60.0" y1="60" y2="320" /><line opacity="0.5" stroke="#414868" stroke-dasharray="5,5" stroke-opacity="1" stroke-width="1" x1="113.07692307692308" x2="113.07692307692308" y1="60" y2="320" /><line opacity="0.5" stroke="#414868" stroke-dasharray="5,5" stroke-opacity="1" stroke-width="1" x1="166.15384615384616" x2="166.15384615384616" y1="60" y2="320" /><line opacity="0.5" stroke="#414868" stroke-dasharray="5,5" stroke-opacity="1" stroke-width="1" x1="219.23076923076923" x2="219.23076923076923" y1="60" y2="320" /><line opacity="0.5" stroke="#414868" stroke-dasharray="5,5" stroke-opacity="1" stroke-width="1" x1="272.3076923076923" x2="272.3076923076923" y1="60" y2="320" /><line opacity="0.5" stroke="#414868" stroke-dasharray="5,5" stroke-opacity="1" stroke-width="1" x1="325.3846153846154" x2="325.3846153846154" y1="60" y2="320" /><line opacity="0.5" stroke="#414868" stroke-dasharray="5,5" stroke-opacity="1" stroke-width="1" x1="378.46153846153845" x2="378.46153846153845" y1="60" y2="320" /><line opacity="0.5" stroke="#414868" stroke-dasharray="5,5" stroke-opacity="1" stroke-width="1" x1="431.53846153846155" x2="431.53846153846155" y1="60" y2="320" /><line opacity="0.5" stroke="#414868" stroke-dasharray="5,5" stroke-opacity="1" stroke-width="1" x1="484.61538461538464" x2="484.61538461538464" y1="60" y2="320" /><line opacity="0.5" stroke="#414868" stroke-dasharray="5,5" stroke-opacity="1" stroke-width="1" x1="537.6923076923077" x2="537.6923076923077" y1="60" y2="320" /><line opacity="0.5" stroke="#414868" stroke-dasharray="5,5" stroke-opacity="1" stroke-width="1" x1="590.7692307692308" x2="590.7692307692308" y1="60" y2="320" /><line opacity="0.5" stroke="#414868" stroke-dasharray="5,5" stroke-opacity="1" stroke-width="1" x1="643.8461538461539" x2="643.8461538461539" y1="60" y2="320" /><line opacity="0.5" stroke="#414868" stroke-dasharray="5,5" stroke-opacity="1" stroke-width="1" x1="696.9230769230769" x2="696.9230769230769" y1="60" y2="320" /><line opacity="0.5" stroke="#414868" stroke-dasharray="5,5" stroke-opacity="1" stroke-width="1" x1="750.0" x2="750.0" y1="60" y2="320" /><circle cx="60.0" cy="307.0" fill="#8aadf4" fill-opacity="1" r="4" /><circle cx="113.07692307692308" cy="92.5" fill="#8aadf4" fill-opacity="1" r="4" /><circle cx="166.15384615384616" cy="300.5" fill="#8aadf4" fill-opacity="1" r="4" /><circle cx="219.23076923076923" cy="229.0" fill="#8aadf4" fill-opacity="1" r="4" /><circle cx="272.3076923076923" cy="307.0" fill="#8aadf4" fill-opacity="1" r="4" /><circle cx="325.3846153846154" cy="281.0" fill="#8aadf4" fill-opacity="1" r="4" /><circle cx="378.46153846153845" cy="248.5" fill="#8aadf4" fill-opacity="1" r="4" /><circle cx="431.53846153846155" cy="274.5" fill="#8aadf4" fill-opacity="1" r="4" /><circle cx="484.61538461538464" cy="274.5" fill="#8aadf4" fill-opacity="1" r="4" /><circle cx="537.6923076923077" cy="287.5" fill="#8aadf4" fill-opacity="1" r="4" /><circle cx="590.7692307692308" cy="274.5" fill="#8aadf4" fill-opacity="1" r="4" /><circle cx="643.8461538461539" cy="242.0" fill="#8aadf4" fill-opacity="1" r="4" /><circle cx="696.9230769230769" cy="196.5" fill="#8aadf4" fill-opacity="1" r="4" /><circle cx="750.0" cy="196.5" fill="#8aadf4" fill-opacity="1" r="4" /><path d="M 60.0,307.0 C 77.6923076923077,307.0 95.38461538461539,92.5 113.07692307692308,92.5 C 130.76923076923077,92.5 148.46153846153845,300.5 166.15384615384616,300.5 C 183.84615384615384,300.5 201.53846153846155,229.0 219.23076923076923,229.0 C 236.92307692307693,229.0 254.6153846153846,307.0 272.3076923076923,307.0 C 290.0,307.0 307.69230769230774,281.0 325.3846153846154,281.0 C 343.0769230769231,281.0 360.7692307692308,248.5 378.46153846153845,248.5 C 396.15384615384613,248.5 413.84615384615387,274.5 431.53846153846155,274.5 C 449.2307692307692,274.5 466.92307692307696,274.5 484.61538461538464,274.5 C 502.3076923076923,274.5 520.0,287.5 537.6923076923077,287.5 C 555.3846153846155,287.5 573.0769230769231,274.5 590.7692307692308,274.5 C 608.4615384615386,274.5 626.1538461538462,242.0 643.8461538461539,242.0 C 661.5384615384615,242.0 679.2307692307693,196.5 696.9230769230769,196.5 C 714.6153846153846,196.5 732.3076923076923,196.5 750.0,196.5" fill="none" stroke="#8aadf4" stroke-dasharray="1165.9464177709851" stroke-dashoffset="1165.9464177709851" stroke-linecap="round" stroke-linejoin="round" stroke-opacity="0.4" stroke-width="4"><animate attributeName="stroke-dashoffset" dur="2s" fill="freeze" from="1165.9464177709851" repeatCount="1" to="0" /></path><circle cx="60.0" cy="216.0" fill="#cba6f7" fill-opacity="1" r="4" /><circle cx="113.07692307692308" cy="287.5" fill="#cba6f7" fill-opacity="1" r="4" /><circle cx="166.15384615384616" cy="300.5" fill="#cba6f7" fill-opacity="1" r="4" /><circle cx="219.23076923076923" cy="255.0" fill="#cba6f7" fill-opacity="1" r="4" /><circle cx="272.3076923076923" cy="313.5" fill="#cba6f7" fill-opacity="1" r="4" /><circle cx="325.3846153846154" cy="268.0" fill="#cba6f7" fill-opacity="1" r="4" /><circle cx="378.46153846153845" cy="307.0" fill="#cba6f7" fill-opacity="1" r="4" /><circle cx="431.53846153846155" cy="307.0" fill="#cba6f7" fill-opacity="1" r="4" /><circle cx="484.61538461538464" cy="287.5" fill="#cba6f7" fill-opacity="1" r="4" /><circle cx="537.6923076923077" cy="255.0" fill="#cba6f7" fill-opacity="1" r="4" /><circle cx="590.7692307692308" cy="196.5" fill="#cba6f7" fill-opacity="1" r="4" /><circle cx="643.8461538461539" cy="235.5" fill="#cba6f7" fill-opacity="1" r="4" /><circle cx="696.9230769230769" cy="131.5" fill="#cba6f7" fill-opacity="1" r="4" /><circle cx="750.0" cy="60.0" fill="#cba6f7" fill-opacity="1" r="4" /><path d="M 60.0,216.0 C 77.6923076923077,216.0 95.38461538461539,287.5 113.07692307692308,287.5 C 130.76923076923077,287.5 148.46153846153845,300.5 166.15384615384616,300.5 C 183.84615384615384,300.5 201.53846153846155,255.0 219.23076923076923,255.0 C 236.92307692307693,255.0 254.6153846153846,313.5 272.3076923076923,313.5 C 290.0,313.5 307.69230769230774,268.0 325.3846153846154,268.0 C 343.0769230769231,268.0 360.7692307692308,307.0 378.46153846153845,307.0 C 396.15384615384613,307.0 413.84615384615387,307.0 431.53846153846155,307.0 C 449.2307692307692,307.0 466.92307692307696,287.5 484.61538461538464,287.5 C 502.3076923076923,287.5 520.0,255.0 537.6923076923077,255.0 C 555.3846153846155,255.0 573.0769230769231,196.5 590.7692307692308,196.5 C 608.4615384615386,196.5 626.1538461538462,235.5 643.8461538461539,235.5 C 661.5384615384615,235.5 679.2307692307693,131.5 696.9230769230769,131.5 C 714.6153846153846,131.5 732.3076923076923,60.0 750.0,60.0" fill="none" stroke="#cba6f7" stroke-dasharray="974.1315818708723" stroke-dashoffset="974.1315818708723" stroke-linecap="round" stroke-linejoin="round" stroke-opacity="0.4" stroke-width="4"><animate attributeName="stroke-dashoffset" dur="2s" fill="freeze" from="974.1315818708723" repeatCount="1" to="0" /></path><text fill="#cdd6f4" fill-opacity="1" style="font-size: 12px; font-family: Arial" transform="rotate(45, 60.0, 340)" x="60.0" y="340">14</text><text fill="#cdd6f4" fill-opacity="1" style="font-size: 12px; font-family: Arial" transform="rotate(45, 113.07692307692308, 340)" x="113.07692307692308" y="340">15</text><text fill="#cdd6f4" fill-opacity="1" style="font-size: 12px; font-family: Arial" transform="rotate(45, 166.15384615384616, 340)" x="166.15384615384616" y="340">16</text><text fill="#cdd6f4" fill-opacity="1" style="font-size: 12px; font-family: Arial" transform="rotate(45, 219.23076923076923, 340)" x="219.23076923076923" y="340">17</text><text fill="#cdd6f4" fill-opacity="1" style="font-size: 12px; font-family: Arial" transform="rotate(45, 272.3076923076923, 340)" x="272.3076923076923" y="340">18</text><text fill="#cdd6f4" fill-opacity="1" style="font-size: 12px; font-family: Arial" transform="rotate(45, 325.3846153846154, 340)" x="325.3846153846154" y="340">19</text><text fill="#cdd6f4" fill-opacity="1" style="font-size: 12px; font-family: Arial" transform="rotate(45, 378.46153846153845, 340)" x="378.46153846153845" y="340">20</text><text fill="#cdd6f4" fill-opacity="1" style="font-size: 12px; font-family: Arial" transform="rotate(45, 431.53846153846155, 340)" x="431.53846153846155" y="340">21</text><text fill="#cdd6f4" fill-opacity="1" style="font-size: 12px; font-family: Arial" transform="rotate(45, 484.61538461538464, 340)" x="484.61538461538464" y="340">22</text><text fill="#cdd6f4" fill-opacity="1" style="font-size: 12px; font-family: Arial" transform="rotate(45, 537.6923076923077, 340)" x="537.6923076923077" y="340">23</text><text fill="#cdd6f4" fill-opacity="1" style="font-size: 12px; font-family: Arial" transform="rotate(45, 590.7692307692308, 340)" x="590.7692307692308" y="340">24</text><text fill="#cdd6f4" fill-opacity="1" style="font-size: 12px; font-family: Arial" transform="rotate(45, 643.8461538461539, 340)" x="643.8461538461539" y="340">25</text><text fill="#cdd6f4" fill-opacity="1" style="font-size: 12px; font-family: Arial" transform="rotate(45, 696.9230769230769, 340)" x="696.9230769230769" y="340">26</text><text fill="#cdd6f4" fill-opacity="1" style="font-size: 12px; font-family: Arial" transform="rotate(45, 750.0, 340)" x="750.0" y="340">27</text><text fill="#cdd6f4" fill-opacity="1" style="font-size: 14px; font-family: Arial" text-anchor="middle" x="400.0" y="373.3333333333333">Days</text><text fill="#cdd6f4" fill-opacity="1" style="font-size: 14px; font-family: Arial" text-anchor="middle" transform="rotate(-90, 20.0, 200.0)" x="20.0" y="200.0">Count</text><line stroke="#8aadf4" stroke-opacity="0.4" stroke-width="3" x1="340.0" x2="360.0" y1="388.3333333333333" y2="388.3333333333333" /><text fill="#cdd6f4" fill-opacity="1" style="font-size: 12px; font-family: Arial" x="370.0" y="393.3333333333333">Clones</text><line stroke="#cba6f7" stroke-opacity="0.4" stroke-width="3" x1="440.0" x2="460.0" y1="388.3333333333333" y2="388.3333333333333" /><text fill="#cdd6f4" fill-opacity="1" style="font-size: 12px; font-family: Arial" x="470.0" y="393.3333333333333">Views</text></svg>